HIERARCHY
ROOT hip
{
	OFFSET 0.000000 0.000000 0.000000 
	CHANNELS 6 Xposition Yposition Zposition Xrotation Zrotation Yrotation
	JOINT abdomen
	{
		OFFSET 0.000000 3.402643 0.000000 
		CHANNELS 3 Xrotation Zrotation Yrotation
		JOINT chest
		{
			OFFSET 0.000000 8.438565 -0.680529 
			CHANNELS 3 Xrotation Zrotation Yrotation
			JOINT neck
			{
				OFFSET 0.000000 10.207942 -0.272212 
				CHANNELS 3 Xrotation Zrotation Yrotation
				JOINT head
				{
					OFFSET 0.000000 3.130431 0.000000 
					CHANNELS 3 Xrotation Zrotation Yrotation
					End Site
					{
						OFFSET 0.000000 3.130435 0.000000 
					}
				}
			}
			JOINT lCollar
			{
				OFFSET 3.470700 6.669187 -0.816635 
				CHANNELS 3 Yrotation Zrotation Xrotation
				JOINT lShldr
				{
					OFFSET 3.198488 0.000000 0.000000 
					CHANNELS 3 Zrotation Yrotation Xrotation
					JOINT lForeArm
					{
						OFFSET 10.139888 0.000000 0.000000 
						CHANNELS 3 Yrotation Zrotation Xrotation
						JOINT lHand
						{
							OFFSET 8.370511 0.000000 0.000000 
							CHANNELS 3 Zrotation Yrotation Xrotation
							End Site
							{
								OFFSET 4.083176 0.000000 0.000000 
							}
						}
					}
				}
			}
			JOINT rCollar
			{
				OFFSET -3.470700 6.669187 -0.816635 
				CHANNELS 3 Yrotation Zrotation Xrotation
				JOINT rShldr
				{
					OFFSET -3.198488 0.000000 0.000000 
					CHANNELS 3 Zrotation Yrotation Xrotation
					JOINT rForeArm
					{
						OFFSET -10.139888 0.000000 0.000000 
						CHANNELS 3 Yrotation Zrotation Xrotation
						JOINT rHand
						{
							OFFSET -8.370511 0.000000 0.000000 
							CHANNELS 3 Zrotation Yrotation Xrotation
							End Site
							{
								OFFSET -4.083176 0.000000 0.000000 
							}
						}
					}
				}
			}
		}
	}
	JOINT lThigh
	{
		OFFSET 5.308129 -1.633274 1.361059 
		CHANNELS 3 Xrotation Zrotation Yrotation
		JOINT lShin
		{
			OFFSET -2.041588 -20.007561 0.000000 
			CHANNELS 3 Xrotation Zrotation Yrotation
			JOINT lFoot
			{
				OFFSET 0.000000 -19.190928 -1.224953 
				CHANNELS 3 Xrotation Yrotation Zrotation
				End Site
				{
					OFFSET 0.000000 -2.449906 4.627600 
				}
			}
		}
	}
	JOINT rThigh
	{
		OFFSET -5.308129 -1.633274 1.361059 
		CHANNELS 3 Xrotation Zrotation Yrotation
		JOINT rShin
		{
			OFFSET 2.041588 -20.007561 0.000000 
			CHANNELS 3 Xrotation Zrotation Yrotation
			JOINT rFoot
			{
				OFFSET 0.000000 -19.190928 -1.224953 
				CHANNELS 3 Xrotation Yrotation Zrotation
				End Site
				{
					OFFSET 0.000000 -2.449906 4.627600 
				}
			}
		}
	}
}
MOTION
Frames: 18
Frame Time: 0.011111
-1.438943 52.704357 24.781084 2.377717 6.345736 0.889048 33.092419 -7.867514 -7.517953 -37.324421 7.586314 -1.563729 -15.576361 -3.827458 -3.681454 27.605179 5.631358 -7.468676 4.570630 -11.838743 2.144267 -64.784592 -31.723753 36.411980 -54.953228 8.659408 10.200108 8.524705 12.647240 -39.651745 -5.057420 16.551065 2.193941 59.369652 10.116702 25.493256 45.940029 -6.665174 6.570190 -8.534408 -12.637552 33.792828 23.829535 -3.350463 -16.513432 -0.105122 -5.950832 -0.693403 -19.534847 5.336162 -0.996403 -36.057949 -7.844110 29.940998 25.066696 5.578328 4.196048 -28.311924 -11.067606 -3.254450 
-1.498287 52.649345 25.282848 2.328304 6.331113 1.264198 33.109203 -7.741432 -7.615515 -37.235249 7.568983 -1.596557 -15.584655 -3.735542 -3.676641 27.616598 5.508655 -7.445497 4.570630 -11.838743 2.144267 -64.882286 -31.993032 36.483692 -54.615334 8.604284 10.048375 8.524705 12.647240 -39.515026 -5.057420 16.551065 2.193941 59.335075 10.206510 25.686880 45.898495 -6.651259 6.553292 -8.534408 -12.637552 33.910015 24.461277 -3.183852 -16.590181 -0.105104 -5.950833 -0.693403 -19.548864 5.311759 -0.988225 -35.907246 -7.920174 30.504715 24.704832 5.587992 4.146116 -29.372799 -10.761272 -3.493359 
-1.525960 52.588669 25.759607 2.407576 6.522870 1.554587 33.105175 -7.804359 -7.692830 -37.290638 7.429617 -1.594755 -15.469053 -3.857866 -3.750817 27.531124 5.770358 -7.582603 4.570630 -11.838743 2.144267 -64.926727 -32.059418 36.617233 -54.490116 8.591297 10.011292 8.524705 12.647240 -39.368546 -5.057420 16.551065 2.193941 59.413113 10.192676 25.553543 45.857784 -6.644112 6.542250 -8.534408 -12.637552 33.783062 24.980333 -3.262174 -16.680477 -0.105096 -5.950831 -0.693403 -19.500822 5.207803 -1.040815 -36.008598 -8.283699 30.351297 24.540344 5.607764 4.135118 -29.379755 -10.539356 -3.393578 
-1.567301 52.518322 26.242367 2.496337 6.620617 1.735084 33.105129 -7.804644 -7.746745 -37.436405 7.354593 -1.618298 -15.390228 -3.882351 -3.901661 27.383263 5.827423 -7.882551 4.570630 -11.838743 2.144267 -65.006088 -32.045914 36.571239 -54.225494 8.543344 9.894654 8.524705 12.647240 -39.475964 -5.057420 16.551065 2.193941 59.428562 10.113639 25.534851 45.856968 -6.637311 6.535288 -8.534408 -12.637552 33.861187 25.502661 -3.252636 -16.638878 -0.105102 -5.950831 -0.693403 -19.517899 5.016343 -1.097019 -36.070751 -8.507051 29.629143 24.581823 5.602680 4.128870 -28.674612 -10.430176 -3.103444 
-1.640648 52.432972 26.739462 2.545545 6.662317 1.869699 33.008251 -7.841949 -7.887250 -37.479050 7.475419 -1.659818 -15.232403 -3.809554 -3.982004 27.202034 5.678633 -8.044937 4.570630 -11.838743 2.144267 -65.146523 -31.892616 36.371468 -54.035534 8.509840 9.810219 8.524705 12.647240 -39.720100 -5.057420 16.551065 2.193941 59.370697 10.136206 25.376072 45.712978 -6.598156 6.481963 -8.534408 -12.637552 33.626808 26.060061 -3.174408 -16.512524 -0.105107 -5.950834 -0.693403 -19.569548 4.785819 -1.152995 -35.991112 -8.604903 28.921730 24.741909 5.599224 4.171366 -28.189756 -9.805340 -2.699571 
-1.721330 52.309952 27.241890 2.495857 6.606254 2.066803 33.004669 -7.717057 -7.989001 -37.462502 7.591710 -1.723669 -15.119375 -4.008395 -3.894617 27.273958 5.800893 -7.896574 4.570630 -11.838743 2.144267 -65.319466 -31.776888 36.196896 -53.878029 8.485151 9.745101 8.524705 12.647240 -39.690807 -5.057420 16.551065 2.193941 59.277203 10.229073 25.166765 45.590065 -6.569453 6.444457 -8.534408 -12.637552 33.245953 26.642618 -2.930542 -16.399368 -0.106127 -5.950448 -0.673914 -19.526581 4.399347 -1.293204 -35.666428 -8.586166 28.212671 24.995707 5.579640 4.209680 -27.883480 -8.798544 -2.172710 
-1.802012 52.223930 27.766657 2.407239 6.612655 2.213211 33.051662 -7.694381 -8.001109 -37.354698 7.614015 -1.713584 -15.169148 -4.056154 -3.868350 27.108789 5.796782 -7.858535 4.570630 -11.838743 2.144267 -65.443230 -31.829737 36.040245 -53.529232 8.419166 9.597308 8.524705 12.647240 -40.091198 -5.057420 16.551065 2.193941 59.204388 10.340422 25.282314 45.671463 -6.584065 6.464068 -8.534408 -12.637552 33.441265 27.289133 -2.754622 -16.231766 -0.106142 -5.950633 -0.683666 -19.281929 3.993402 -1.451547 -35.196735 -8.567006 27.455915 25.337421 5.574122 4.229550 -27.524385 -7.995943 -1.720536 
-1.879694 52.136585 28.299761 2.347777 6.558973 2.380105 33.013348 -7.600867 -7.940701 -37.226093 7.596663 -1.700951 -15.206571 -3.976425 -3.897459 26.970449 5.645539 -7.943844 4.570630 -11.838743 2.144267 -65.558693 -31.755814 35.897976 -53.276775 8.374348 9.490864 8.524705 12.647240 -40.618542 -5.057420 16.551065 2.193941 59.175026 10.527747 25.057793 45.558498 -6.553239 6.419418 -8.534408 -12.637552 33.372906 27.957449 -2.520156 -16.066490 -0.105136 -5.950644 -0.683652 -18.829721 3.702797 -1.613160 -34.738811 -8.517565 26.446321 25.842043 5.544363 4.307832 -27.039381 -7.284514 -1.294084 
-1.958042 52.058903 28.830528 2.308535 6.648794 2.613747 32.992458 -7.607423 -8.089342 -37.217812 7.655666 -1.753384 -15.101524 -4.086900 -3.854562 26.873873 5.716656 -7.874964 4.570630 -11.838743 2.144267 -65.703278 -31.514227 35.644566 -53.088024 8.342777 9.416034 8.524705 12.647240 -40.618542 -5.057420 16.551065 2.193941 59.108879 10.580067 24.820454 45.538044 -6.549860 6.419405 -8.534408 -12.637552 33.148296 28.550421 -2.422684 -16.041544 -0.105145 -5.950833 -0.693404 -18.556925 3.524783 -1.690879 -34.468098 -8.594921 25.596943 26.474176 5.524316 4.388728 -26.459253 -6.602513 -0.844872 
-2.041058 52.008892 29.379969 2.249937 6.808214 2.847647 33.027596 -7.689348 -8.304670 -37.229557 7.725653 -1.799609 -15.143038 -4.209418 -3.808738 26.972788 5.843308 -7.791944 4.570630 -11.838743 2.144267 -65.781113 -31.324703 35.471535 -52.845219 8.293382 9.312464 8.524705 12.647240 -40.569714 -5.057420 16.551065 2.193941 59.032909 10.632891 24.777994 45.558498 -6.553239 6.419418 -8.534408 -12.637552 33.187355 29.167006 -2.373576 -16.033527 -0.105140 -5.950831 -0.693404 -18.361650 3.349094 -1.764258 -34.290131 -8.673473 24.982204 27.198648 5.485462 4.475140 -25.609879 -6.629668 -0.666629 
-2.136410 51.980553 29.945412 2.121974 6.827200 3.018731 33.037853 -7.698982 -8.346980 -37.141102 7.735936 -1.799365 -15.309068 -4.175409 -3.705144 27.293497 5.806807 -7.583874 4.570630 -11.838743 2.144267 -65.834068 -31.214600 35.278339 -52.519585 8.231780 9.176926 8.524705 12.647240 -40.784557 -5.057420 16.551065 2.193941 59.014824 10.663164 24.651999 45.569019 -6.558647 6.427762 -8.534408 -12.637552 33.294781 29.861458 -2.188196 -15.910356 -0.105147 -5.950642 -0.683652 -18.046682 3.088607 -1.877417 -34.056652 -8.526800 24.504551 27.981297 5.446637 4.575237 -24.668692 -7.237126 -0.691877 
-2.234762 51.953545 30.493851 2.022862 6.671730 3.128493 33.012249 -7.535079 -8.279737 -37.151997 7.773833 -1.808761 -15.453426 -4.093905 -3.768030 27.551569 5.573153 -7.755137 4.570630 -11.838743 2.144267 -65.979286 -30.982733 34.771103 -52.089329 8.149897 9.008248 8.524705 12.647240 -41.272839 -5.057420 16.551065 2.193941 58.941372 10.578944 24.354240 45.538044 -6.549860 6.419405 -8.534408 -12.637552 33.031109 30.446911 -1.875509 -15.622652 -0.105167 -5.950830 -0.693404 -17.572226 2.932358 -1.987511 -33.842415 -8.204165 23.923397 28.823778 5.393436 4.705953 -23.949127 -7.355783 -0.578209 
-2.318445 51.920876 31.036955 1.972929 6.514226 3.234568 32.957836 -7.280554 -8.245735 -37.191998 7.795166 -1.848783 -15.374223 -4.002396 -3.717430 27.449411 5.254986 -7.674489 4.570630 -11.838743 2.144267 -66.182487 -30.718739 34.051147 -51.501171 8.024384 8.754662 8.524705 12.647240 -41.995495 -5.057420 16.551065 2.193941 58.766106 10.617316 24.161018 45.507072 -6.541059 6.409947 -8.534408 -12.637552 32.913925 30.969887 -1.563485 -15.325095 -0.106213 -5.950445 -0.673915 -16.967964 2.789879 -2.090999 -33.611309 -7.959165 23.050865 29.675249 5.344557 4.799196 -22.834496 -7.588001 -0.415379 
-2.395460 51.874863 31.589724 1.873755 6.254925 3.252845 32.872692 -6.981901 -8.053065 -37.161396 7.757910 -1.836722 -15.227594 -4.000961 -3.757966 27.211428 5.173430 -7.790850 4.570630 -11.838743 2.144267 -66.367584 -30.484921 33.418404 -50.873569 7.894105 8.500579 8.524705 12.647240 -42.835339 -5.057420 16.551065 2.193941 58.691719 10.885176 23.643265 45.239777 -6.464148 6.303588 -8.534408 -12.637552 32.689308 31.553205 -1.193141 -14.871449 -0.105246 -5.950830 -0.693405 -16.384190 2.631414 -2.189827 -33.224583 -7.657732 21.786892 30.512674 5.305267 4.932269 -21.250767 -8.199824 -0.265831 
-2.485143 51.846523 32.136829 1.735651 6.046449 3.280266 32.892277 -6.756857 -7.971169 -37.161854 7.774987 -1.850320 -15.430770 -3.910264 -3.769275 27.466259 5.089011 -7.799104 4.570630 -11.838743 2.144267 -66.456596 -30.157888 32.972942 -50.570084 7.827155 8.380527 8.524705 12.647240 -43.323616 -5.057420 16.551065 2.193941 58.587833 11.154545 23.405655 44.910767 -6.367778 6.180789 -8.534408 -12.637552 32.601421 31.409302 -1.094727 -14.407390 1.249852 -5.973233 -0.862865 -16.103987 2.466612 -2.262885 -32.835846 -7.413307 20.637760 31.342491 5.251670 5.021619 -20.018732 -8.526808 -0.081263 
-2.580495 51.837193 32.681599 1.597138 5.680055 3.372681 32.917450 -6.352089 -7.808440 -37.210251 7.742733 -1.860387 -15.535952 -3.769637 -3.741160 27.704992 4.936665 -7.734969 4.570630 -11.838743 2.144267 -66.559395 -29.732380 32.523441 -50.329140 7.770508 8.281593 8.524705 12.647240 -43.538464 -5.057420 16.551065 2.193941 58.495262 11.266861 23.108406 44.704681 -6.300301 6.095383 -8.534408 -12.637552 32.396343 28.401625 -1.524599 -13.657853 7.801943 -5.996822 -1.814213 -17.446770 1.741586 -2.342096 -32.314056 -6.992219 19.607491 32.120087 5.206776 5.118035 -19.288286 -8.712096 -0.008666 
-2.671846 51.816185 33.219368 1.409943 5.232572 3.323484 32.944054 -5.905904 -7.464705 -37.277233 7.668221 -1.834163 -15.280223 -3.647525 -3.780188 27.548290 4.745703 -7.808384 4.570630 -11.838743 2.144267 -66.669113 -29.414118 32.108231 -49.796986 7.651074 8.073984 8.524705 12.647240 -43.694714 -5.057420 16.551065 2.193941 58.465816 11.454170 22.337132 44.397034 -6.212209 5.992225 -8.534408 -12.637552 31.800640 26.882030 -1.436088 -12.848110 11.600508 -5.968060 -2.350259 -17.593929 1.336854 -2.437380 -31.727097 -6.386784 18.804264 32.846783 5.168060 5.200927 -18.789993 -8.797507 0.083399 
-2.754862 51.803185 33.754807 1.291859 4.870768 3.197017 32.932899 -5.586461 -7.149664 -37.295303 7.606910 -1.793806 -15.034175 -3.521408 -3.838866 27.352608 4.551214 -7.912019 4.570630 -11.838743 2.144267 -66.761421 -29.135807 31.912033 -49.255741 7.527331 7.856953 8.524705 12.647240 -43.089241 -5.057420 16.551065 2.193941 58.405891 11.809279 21.702881 44.059162 -6.111772 5.861920 -8.534408 -12.637552 31.341652 25.559534 -1.358346 -11.568905 14.888986 -5.908819 -2.817126 -17.176838 0.527900 -2.727699 -31.261189 -5.802300 18.233713 33.574100 5.114391 5.298606 -18.357096 -8.812492 0.178728 
